<svg xmlns="http://www.w3.org/2000/svg" viewBox="0 0 256 256">
  <path d="M245.44 108.308h-85.09a58.542 58.542 0 0 1-57.996 57.996H0v45.404C0 229.636 18.364 248 40.292 248h204.416C266.636 248 285 229.636 285 207.708V40.292C285 18.364 266.636 0 244.708 0H40.292C18.364 0 0 18.364 0 40.292v67.976h245.44v.04z" fill="#D22128"/>
  <path d="M102.4 171.52h51.2v17.067H102.4V171.52zm0-51.2h51.2v17.067H102.4V120.32zm0-51.2h51.2v17.067H102.4V69.12z" fill="white"/>
  <path d="M25.6 69.12h51.2v17.067H25.6V69.12zm0 51.2h51.2v17.067H25.6V120.32zm0 51.2h51.2v17.067H25.6V171.52z" fill="white"/>
</svg>
