<svg xmlns="http://www.w3.org/2000/svg" viewBox="0 0 256 153">
  <path d="M72.392 55.438c-3.196-2.138-7.588-3.196-13.176-3.196-5.588 0-10.509 1.058-14.763 3.196-4.254 2.138-6.381 5.334-6.381 9.587 0 2.138.847 4.034 2.54 5.693 1.694 1.658 4.034 2.963 7.021 3.914 2.987.952 6.333 1.694 10.038 2.233 3.705.54 7.411.81 11.117.81 3.705 0 7.411-.27 11.117-.81 3.705-.539 7.051-1.281 10.038-2.233 2.987-.951 5.327-2.256 7.021-3.914 1.693-1.659 2.54-3.555 2.54-5.693 0-4.253-2.127-7.449-6.381-9.587-4.254-2.138-9.175-3.196-14.763-3.196-5.588 0-9.98 1.058-13.176 3.196l.208-.004z" fill="#FF9900"/>
  <path d="M243.82 113.903c0 13.372-10.838 24.209-24.209 24.209H36.389c-13.372 0-24.209-10.837-24.209-24.209V39.683c0-13.371 10.837-24.208 24.209-24.208h183.222c13.371 0 24.209 10.837 24.209 24.208v74.22z" fill="#232F3E"/>
  <path d="M155.96 42.35c-8.4 0-15.2 6.8-15.2 15.2s6.8 15.2 15.2 15.2 15.2-6.8 15.2-15.2-6.8-15.2-15.2-15.2zm-76.8 15.2h30.4v15.2H79.16V57.55zm38.4 0h30.4v15.2h-30.4V57.55zm38.4 0h30.4v15.2h-30.4V57.55zm-76.8 23h30.4v15.2H79.16V80.55zm38.4 0h30.4v15.2h-30.4V80.55zm38.4 0h30.4v15.2h-30.4V80.55z" fill="#FF9900"/>
</svg>
