<svg xmlns="http://www.w3.org/2000/svg" viewBox="0 0 256 185">
  <path d="M250.716 70.497c-1.898-1.898-5.003-1.898-6.901 0-5.646 5.646-11.292 10.649-17.838 14.808-3.103 1.898-6.206 4.101-9.809 6.304l-8.71-8.71c2.103-1.798 4.206-3.696 6.304-5.694 9.909-9.908 15.555-23.716 15.555-37.823 0-29.522-24.016-53.538-53.538-53.538-14.107 0-27.915 5.646-37.823 15.555-1.898 1.898-1.898 5.003 0 6.901 1.898 1.898 5.003 1.898 6.901 0 7.905-7.905 18.554-12.258 29.522-12.258 23.316 0 42.226 18.91 42.226 42.226 0 11.268-4.353 21.917-12.258 29.522l-10.649 10.649c-7.905 7.905-18.554 12.258-29.522 12.258-23.316 0-42.226-18.91-42.226-42.226 0-11.268 4.353-21.917 12.258-29.522 1.898-1.898 1.898-5.003 0-6.901-1.898-1.898-5.003-1.898-6.901 0-9.908 9.908-15.555 23.716-15.555 37.823 0 14.807 6.147 28.615 16.256 38.423-6.701 3.003-13.002 6.701-18.748 11.292-5.646 4.491-10.549 9.609-14.408 15.255C85.674 140.691 85.674 185 85.674 185s44.309 0 69.336-14.408c5.646-3.859 10.764-8.762 15.255-14.408 4.591-5.746 8.289-12.047 11.292-18.748 9.808 10.109 23.616 16.256 38.423 16.256 29.522 0 53.538-24.016 53.538-53.538 0-14.107-5.646-27.915-15.555-37.823-1.898-1.898-5.003-1.898-6.901 0zm-69.336 83.731c-22.516 12.958-58.641 12.958-58.641 12.958s0-36.125 12.958-58.641c3.459-6.001 7.705-11.592 12.658-16.556 4.954-4.965 10.545-9.211 16.556-12.658 22.516-12.958 58.641-12.958 58.641-12.958s0 36.125-12.958 58.641c-3.459 6.001-7.705 11.592-12.658 16.556-4.954 4.965-10.545 9.211-16.556 12.658z" fill="#2496ED"/>
</svg>
