<svg xmlns="http://www.w3.org/2000/svg" viewBox="0 0 256 310">
  <path d="M218.734 24.15c-12.732-9.144-30.128-13.69-52.188-13.64-22.06.05-41.22 4.695-57.48 13.934-16.26 9.24-24.39 20.832-24.39 34.777 0 8.54 2.775 16.326 8.326 23.358 5.55 7.032 13.384 12.953 23.503 17.764 10.118 4.81 21.521 8.364 34.207 10.663 12.686 2.299 25.372 3.448 38.058 3.448 12.686 0 25.372-1.149 38.058-3.448 12.686-2.299 24.089-5.853 34.207-10.663 10.119-4.81 17.953-10.732 23.503-17.764 5.55-7.032 8.326-14.818 8.326-23.358 0-13.945-8.13-25.538-24.39-34.777C259.954 14.704 240.794 10.06 218.734 10.46c-22.06-.05-39.456 4.496-52.188 13.64z" fill="#EE4C2C"/>
  <path d="M128 96l64 32v64l-64 32-64-32v-64l64-32zm0 24l-40 20v40l40 20 40-20v-40l-40-20z" fill="#EE4C2C"/>
  <path d="M76.8 256h102.4c42.347 0 76.8-34.453 76.8-76.8V76.8C256 34.453 221.547 0 179.2 0H76.8C34.453 0 0 34.453 0 76.8v102.4C0 221.547 34.453 256 76.8 256zM25.6 76.8c0-28.277 22.923-51.2 51.2-51.2h102.4c28.277 0 51.2 22.923 51.2 51.2v102.4c0 28.277-22.923 51.2-51.2 51.2H76.8c-28.277 0-51.2-22.923-51.2-51.2V76.8z" fill="#EE4C2C"/>
</svg>
