<svg xmlns="http://www.w3.org/2000/svg" viewBox="0 0 256 274">
  <path d="M145.726 34.043c18.123 2.153 32.44 6.482 42.949 12.986 10.51 6.505 15.764 14.186 15.764 23.043 0 8.858-5.254 16.539-15.764 23.043-10.509 6.505-24.826 10.833-42.949 12.987v34.688c13.51-1.793 25.306-4.887 35.387-9.281 10.08-4.395 18.445-10.09 25.096-17.085 6.651-6.996 11.588-15.293 14.812-24.89 3.223-9.598 4.835-20.507 4.835-32.727 0-12.22-1.612-23.129-4.835-32.727C220.797 14.482 215.86 6.185 209.209-.811c-6.651-6.996-15.016-12.69-25.096-17.085C174.032-22.291 162.236-25.386 148.726-27.178V-61.866h-6v96.909H145.726z" fill="#FF6F00"/>
  <path d="M128 48l-48 24v48l48 24 48-24V72l-48-24zm0 16l32 16v32l-32 16-32-16V80l32-16z" fill="#FF6F00"/>
  <path d="M76.8 256h102.4c42.347 0 76.8-34.453 76.8-76.8V76.8C256 34.453 221.547 0 179.2 0H76.8C34.453 0 0 34.453 0 76.8v102.4C0 221.547 34.453 256 76.8 256zM25.6 76.8c0-28.277 22.923-51.2 51.2-51.2h102.4c28.277 0 51.2 22.923 51.2 51.2v102.4c0 28.277-22.923 51.2-51.2 51.2H76.8c-28.277 0-51.2-22.923-51.2-51.2V76.8z" fill="#FF6F00"/>
</svg>
